<svg xmlns="http://www.w3.org/2000/svg" viewBox="0 0 287.81 268.24"><defs><style>.cls-1{fill:#007a43;}.cls-2{fill:#62bb46;}.cls-3{fill:#fff;opacity:0.35;}.cls-4{fill:#002c4a;}.cls-5{fill:#a6ce39;}.cls-6{fill:#00bff3;}</style></defs><g id="fungicide_default"><polygon class="cls-1" points="0 59.06 0 222.85 143.91 264.14 287.81 222.85 287.81 59.06 143.91 99.57 0 59.06"/><polygon class="cls-2" points="0 218.24 143.91 259.24 287.81 218.25 287.81 227.24 143.91 268.24 0 227.24 0 218.24"/><polygon class="cls-2" points="0 52.52 143.91 93.52 287.81 52.52 287.81 61.52 143.91 102.52 0 61.52 0 52.52"/><path class="cls-3" d="M168.63,212.21a89.85,89.85,0,0,0,9-10.62,16,16,0,0,1-1.91-1.61,15.14,15.14,0,0,1,0-21.41,16.61,16.61,0,0,1,1.43-1.25,15.14,15.14,0,0,1,21.1-21.41,181.34,181.34,0,0,0,5.76-35.7s-58.61,2-92,35.43a40,40,0,0,0-3.57,52.49L91.41,225.2a5.41,5.41,0,0,0,7.65,7.65l17.08-17.08A40,40,0,0,0,168.63,212.21Zm-16.18-28.93a8.46,8.46,0,1,1,12,0A8.46,8.46,0,0,1,152.45,183.28ZM150.79,200a5.77,5.77,0,1,1,0,8.15A5.76,5.76,0,0,1,150.79,200Z" transform="translate(-0.04 -8.59)"/></g><g id="Layer_3" data-name="Layer 3"><path class="cls-4" d="M141.62,19.25h4.14a.83.83,0,0,0,0-1.66h-4.14Zm0,4h4.26a.95.95,0,0,0,0-1.89h-4.26Zm6.65-3a3,3,0,0,1-2.1,5.17h-6.91V15.46h6.8a2.9,2.9,0,0,1,2.21,4.76Z" transform="translate(-0.04 -8.59)"/><path class="cls-4" d="M149.86,37.21h-2.54l-.8-1.65H141l-.8,1.65h-2.54l5-9.92h2.3Zm-6.11-7.38L142,33.43h3.49Z" transform="translate(-0.04 -8.59)"/><polygon class="cls-4" points="147.08 30.75 149.93 30.75 144.89 37.22 144.89 40.68 142.53 40.68 142.53 37.22 137.5 30.75 140.34 30.75 143.71 35.27 147.08 30.75"/><polygon class="cls-4" points="160.24 30.75 160.24 32.88 153.63 32.88 153.63 34.53 160 34.53 160 36.66 153.63 36.66 153.63 38.55 160.24 38.55 160.24 40.68 151.26 40.68 151.26 30.75 160.24 30.75"/><path class="cls-4" d="M167.58,45.48H165.8v3.78h-2.36V39.34h6a3.07,3.07,0,0,1,.85,6l2.92,3.9h-2.84Zm1.66-4H165.8v1.89h3.44a1,1,0,0,0,.93-1A.93.93,0,0,0,169.24,41.47Z" transform="translate(-0.04 -8.59)"/><path class="cls-4" d="M138.64,49.26H136.1l-.8-1.65h-5.55l-.8,1.65h-2.54l5-9.92h2.3Zm-6.12-7.38-1.74,3.6h3.49Z" transform="translate(-0.04 -8.59)"/><path class="cls-4" d="M117.54,43.13h4.13a.83.83,0,1,0,0-1.66h-4.13Zm0,4h4.25a.95.95,0,0,0,0-1.89h-4.25Zm6.64-3a3,3,0,0,1,.91,2.16,3,3,0,0,1-3,3h-6.92V39.35H122a2.89,2.89,0,0,1,2.89,2.89A2.84,2.84,0,0,1,124.18,44.1Z" transform="translate(-0.04 -8.59)"/><polygon class="cls-4" points="148.2 42.8 148.2 44.93 141.59 44.93 141.59 46.59 147.97 46.58 147.97 48.71 141.59 48.71 141.59 50.6 148.2 50.6 148.2 52.73 139.22 52.73 139.22 42.8 148.2 42.8"/><path class="cls-4" d="M146.58,66.75a.94.94,0,0,0-.94-.94h-4V67.7h4A1,1,0,0,0,146.58,66.75Zm-7.32,6.85V63.68h6.63A3.07,3.07,0,0,1,147,69.6l3,4h-2.84l-2.83-3.78h-2.72V73.6Z" transform="translate(-0.04 -8.59)"/><path class="cls-5" d="M179.56,42.24a35.87,35.87,0,0,0-71.61,0c0,.75.11,1.5.2,2.24a35.9,35.9,0,0,0,35.6,31.42A31.47,31.47,0,0,1,112.4,46.69c-.05-.74-.08-1.48-.08-2.23s0-1.48.08-2.22A31.47,31.47,0,0,1,143.75,13a35.86,35.86,0,0,1,35.6,31.45c.09.73.16,1.47.21,2.21,0-.74.07-1.48.07-2.23s0-1.48-.07-2.22" transform="translate(-0.04 -8.59)"/><path class="cls-6" d="M108,46.69a35.87,35.87,0,0,0,71.61,0c-.05-.76-.11-1.5-.21-2.24A35.87,35.87,0,0,0,143.75,13a31.48,31.48,0,0,1,31.36,29.21c0,.74.07,1.48.07,2.22s0,1.49-.08,2.23A31.46,31.46,0,0,1,143.75,75.9a35.88,35.88,0,0,1-35.6-31.45c-.09-.73-.16-1.47-.2-2.21,0,.74-.08,1.48-.08,2.22s0,1.49.08,2.23" transform="translate(-0.04 -8.59)"/></g></svg>